# xmcd
# Copyright (C) 1995-1998 Ti Kan
#
# Track frame offsets:
#       150
#       27166
#       53310
#       101522
#       120083
#       145010
#       148804
#       164115
#       169249
#       222411
#       236457
#       239029
#       278190
#
# Disc length: 3987 seconds
#
# Revision: 0
# Processed by: cddbd v1.5.2PL0 Copyright (c) Steve Scherf et al.
# Submitted via: CD-Transfer v1.0
#
DISCID=b80f910d
DTITLE=Jocque, Beau and The Zydeco Rollers - Beau Jocque
DYEAR=95
DGENRE=
TTITLE0=Motor Dude Special (Live)
TTITLE1=Git It, Beau Jocque! (Live)
TTITLE2=Beau Jocque Boogie (Live)
TTITLE3=Sack O' Woe (Live)
TTITLE4=Beau Jocque Run (Live)
TTITLE5=0394413 (Live)
TTITLE6=Coushee Dehors Hier Au Soir (Live)
TTITLE7=Mr. Charlie (Live)
TTITLE8=Shaggy Dog Two Step (Live)
TTITLE9=This Night Is For You (Live)
TTITLE10=Move Your Car (Live)
TTITLE11=Yellow Moon (Live)
TTITLE12=Give Him Cornbread (Live)
EXTD=
EXTT0=
EXTT1=
EXTT2=
EXTT3=
EXTT4=
EXTT5=
EXTT6=
EXTT7=
EXTT8=
EXTT9=
EXTT10=
EXTT11=
EXTT12=
PLAYORDER=
